<svg width="65" height="68" viewBox="0 0 65 68" fill="none" xmlns="http://www.w3.org/2000/svg">
<path fill-rule="evenodd" clip-rule="evenodd" d="M62.1231 14.8134C63.407 9.97317 59.8256 5.3749 54.7719 5.3749V5.3749C51.0793 5.3749 47.7879 7.88863 46.8498 11.4253L35.4898 54.2531C34.2059 59.0933 37.7872 63.6914 42.8409 63.6914V63.6914C46.5334 63.6914 49.8247 61.1777 50.7628 57.6412L62.1231 14.8134Z" fill="#FB7C54"/>
<path fill-rule="evenodd" clip-rule="evenodd" d="M30.0078 14.8411C31.319 9.99597 27.7391 5.37483 22.6746 5.37483V5.37483C19.0014 5.37483 15.7234 7.86531 14.7716 11.3792L3.16524 54.228C1.85189 59.0767 5.43408 63.7021 10.5026 63.7022V63.7022C14.179 63.7023 17.4596 61.2093 18.4114 57.6922L30.0078 14.8411Z" fill="#FB7C54"/>
<path d="M23.3523 5.1728C26.4174 5.1728 29.2273 7.05392 30.3446 9.85398L48.1673 54.5189C49.9181 58.9066 46.7439 63.4696 41.9408 63.4696V63.4696C38.9658 63.4697 36.235 61.6544 35.1314 58.9431L16.9937 14.3851C15.1611 9.88308 18.4123 5.17281 23.3523 5.1728V5.1728Z" fill="#F79A7C"/>
</svg>
