<svg width="448" height="400" viewBox="0 0 448 400" fill="none" xmlns="http://www.w3.org/2000/svg">
<path d="M330.739 390.316C330.739 390.316 326.969 372.552 344.744 364.391C362.519 356.229 360.903 336.546 367.905 323.584C374.907 310.621 381.371 298.619 398.069 313.502C414.766 328.384 379.755 361.99 398.069 370.632C416.382 379.274 413.689 390.316 413.689 390.316H330.739Z" fill="#004B7F"/>
<path d="M391.373 308.624L372.483 390.555L350.399 361.75" stroke="#EEEADA" stroke-miterlimit="10"/>
<path d="M398.952 371.059L373.297 390.556" stroke="#EEEADA" stroke-miterlimit="10"/>
<path d="M309.193 390.796C309.193 390.796 278.491 367.751 296.266 349.508C314.041 331.265 317.273 301.499 315.118 285.657C312.964 269.814 328.385 264.211 337.37 306.617C346.354 349.023 366.978 356.709 361.517 390.796H309.193Z" fill="#004B7F"/>
<path d="M321.582 277.495L330.739 390.316" stroke="#EEEADA" stroke-miterlimit="10"/>
<path d="M296.266 349.508L329.026 369.192L351.698 345.49" stroke="#EEEADA" stroke-miterlimit="10"/>
<path d="M177.228 108.505H258.023V168.952C258.023 174.821 255.408 180.449 250.752 184.599C246.096 188.748 239.782 191.079 233.197 191.079H202.053C195.469 191.079 189.155 188.748 184.499 184.599C179.843 180.449 177.228 174.821 177.228 168.952V108.505Z" fill="black"/>
<path d="M301.4 251.047L300.942 250.61L301.2 250.533L301.4 251.047Z" fill="#DBCAA7"/>
<path d="M337.202 342.989L300.037 354.568C300.037 354.568 278.868 295.066 269.334 272.248C253.983 256.77 203.621 206.207 200.787 206.193L229.545 182.059L301.916 251.993L302.38 252.439L302.45 252.622L337.202 342.989Z" fill="#FFCCC3"/>
<path d="M301.529 251.172L301.47 251.224L301.4 251.047L301.529 251.172Z" fill="#C8B68B"/>
<path d="M162.006 199.092C164.408 202.597 161.973 362.552 161.973 362.552H200.927V199.097L162.006 199.092Z" fill="#C8B68B"/>
<path d="M177.384 57.673C189.149 57.673 198.687 49.172 198.687 38.6856C198.687 28.1991 189.149 19.6981 177.384 19.6981C165.619 19.6981 156.081 28.1991 156.081 38.6856C156.081 49.172 165.619 57.673 177.384 57.673Z" fill="#FFCCC3"/>
<path d="M192.094 47.8888L195.299 68.4221L179.872 70.3376L176.085 46.0645L192.094 47.8888Z" fill="#FFCCC3"/>
<path d="M165.954 38.7815C166.832 38.7815 167.543 38.1474 167.543 37.3652C167.543 36.5831 166.832 35.949 165.954 35.949C165.076 35.949 164.365 36.5831 164.365 37.3652C164.365 38.1474 165.076 38.7815 165.954 38.7815Z" fill="black"/>
<path d="M157.988 37.5621L159.426 46.7654L163.412 46.2325" stroke="black" stroke-width="1.68" stroke-miterlimit="10"/>
<path d="M177.896 57.6681C177.896 57.6681 187.666 57.6681 192.713 51.8734C192.713 51.8734 192.072 58.6282 178.628 62.3297L177.896 57.6681Z" fill="black"/>
<path d="M172.633 52.3536C176.351 52.3536 179.366 49.6668 179.366 46.3525C179.366 43.0382 176.351 40.3514 172.633 40.3514C168.914 40.3514 165.9 43.0382 165.9 46.3525C165.9 49.6668 168.914 52.3536 172.633 52.3536Z" fill="#CCB1B5"/>
<path d="M83.7152 90.6837C75.7272 95.0429 69.312 91.1013 64.2488 84.3369C63.9095 83.8568 63.5755 83.4151 63.247 82.9351C61.0601 79.7521 59.4765 76.5883 59.0295 73.6406L50.0127 60.4958C49.6799 59.9753 49.5876 59.3596 49.7555 58.7795C49.9234 58.1993 50.3381 57.7003 50.9118 57.3881C51.4856 57.0759 52.1732 56.9751 52.8288 57.1072C53.4845 57.2392 54.0567 57.5937 54.4241 58.0954L60.4407 66.8666C60.7583 66.4218 61.1187 66.0026 61.518 65.6135L52.7112 52.8144C52.3785 52.2939 52.2862 51.6783 52.4541 51.0981C52.6219 50.518 53.0367 50.0189 53.6104 49.7067C54.1841 49.3945 54.8717 49.2938 55.5274 49.4258C56.1831 49.5578 56.7553 49.9123 57.1227 50.414L65.6062 62.7714C66.2593 62.4529 66.9339 62.1707 67.6261 61.9265L59.7674 50.4764C59.5782 50.2181 59.4492 49.9285 59.3879 49.6249C59.3266 49.3214 59.3343 49.0099 59.4106 48.709C59.4868 48.4081 59.6301 48.1239 59.8319 47.8733C60.0337 47.6227 60.2899 47.4107 60.5853 47.25C60.8806 47.0892 61.2092 46.983 61.5516 46.9376C61.8939 46.8921 62.2429 46.9084 62.5781 46.9854C62.9132 47.0625 63.2276 47.1987 63.5025 47.386C63.7775 47.5733 64.0075 47.808 64.1788 48.076L72.9424 60.8463C73.6341 60.7982 74.3285 60.7886 75.0216 60.8175L68.5095 49.5162C68.1959 48.9725 68.1375 48.3401 68.3471 47.758C68.5567 47.176 69.0171 46.6919 69.6271 46.4125C70.2371 46.133 70.9467 46.0809 71.5998 46.2677C72.2528 46.4546 72.7958 46.865 73.1094 47.4086L82.3093 63.3763C82.7349 63.7412 83.1496 64.1397 83.5536 64.5621V58.3738C83.5536 57.7627 83.826 57.1765 84.3108 56.7444C84.7957 56.3122 85.4533 56.0694 86.139 56.0694C86.8247 56.0694 87.4824 56.3122 87.9672 56.7444C88.4521 57.1765 88.7245 57.7627 88.7245 58.3738V71.4754L88.8592 71.6722C94.0732 79.2768 92.2418 86.0364 83.7152 90.6837Z" fill="#FFCCC3"/>
<path d="M128.75 133.949L117.358 142.192C115.791 143.176 113.85 143.567 111.961 143.279C110.071 142.991 108.386 142.048 107.275 140.656L67.0765 90.0308C65.9726 88.6348 65.5342 86.9058 65.8573 85.2224C66.1803 83.5389 67.2385 82.0381 68.8002 81.0484L79.4167 74.3512C80.9838 73.367 82.9245 72.9761 84.8141 73.264C86.7038 73.552 88.3886 74.4952 89.5 75.8875L129.698 126.513C131.982 129.403 131.982 131.899 128.75 133.949Z" fill="#FFCCC3"/>
<path d="M161.591 359.585L161.586 391.271H175.051L178.822 387.915H185.286L188.248 390.555L247.767 390.565V380.243L200.911 359.59L161.591 359.585Z" fill="black"/>
<path d="M214.641 365.437L205.754 372.072" stroke="#EEEADA" stroke-miterlimit="10"/>
<path d="M221.105 368.798L212.217 375.437" stroke="#EEEADA" stroke-miterlimit="10"/>
<path d="M30.3466 398.506H448" stroke="#1B1A00" stroke-miterlimit="10"/>
<path d="M238.406 163.633L151.373 169.288L156.813 89.5939C156.813 79.5121 163.783 65.8824 173.586 65.8824H201.687C211.49 65.8632 220.857 69.1374 220.857 79.2192L238.406 163.633Z" fill="#00CEF1"/>
<path d="M197.658 65.8634H196.355L192.31 78.2592L183.018 65.9402L177.546 66.017L177.766 61.9363H185.307L188.211 65.8106L190.99 65.8298L191.771 61.9363H197.157L197.658 65.8634Z" fill="#EEEADA"/>
<path d="M66.4407 79.4258C74.7702 79.4258 81.5225 73.4074 81.5225 65.9833C81.5225 58.5593 74.7702 52.5409 66.4407 52.5409C58.1112 52.5409 51.3589 58.5593 51.3589 65.9833C51.3589 73.4074 58.1112 79.4258 66.4407 79.4258Z" fill="#004B7F"/>
<path d="M73.6638 65.9642C73.9612 65.9642 74.2024 65.7493 74.2024 65.4841C74.2024 65.219 73.9612 65.004 73.6638 65.004C73.3663 65.004 73.1251 65.219 73.1251 65.4841C73.1251 65.7493 73.3663 65.9642 73.6638 65.9642Z" fill="black"/>
<path d="M71.4826 69.7472C71.7801 69.7472 72.0212 69.5322 72.0212 69.2671C72.0212 69.0019 71.7801 68.787 71.4826 68.787C71.1851 68.787 70.944 69.0019 70.944 69.2671C70.944 69.5322 71.1851 69.7472 71.4826 69.7472Z" fill="black"/>
<path d="M75.6407 68.6382C75.9382 68.6382 76.1793 68.4232 76.1793 68.1581C76.1793 67.8929 75.9382 67.678 75.6407 67.678C75.3432 67.678 75.1021 67.8929 75.1021 68.1581C75.1021 68.4232 75.3432 68.6382 75.6407 68.6382Z" fill="black"/>
<path d="M66.6668 388.875C66.6668 388.875 -42.8057 232.607 21.8307 276.295C86.467 319.983 75.6943 355.509 75.6943 355.509C75.6943 355.509 60.0739 201.881 94.5466 251.81C129.019 301.739 117.266 389.509 117.266 389.509L66.6668 388.875Z" stroke="#1F1F31" stroke-miterlimit="10"/>
<path d="M6.21062 388.635C6.21062 388.635 -3.48484 340.146 27.2174 347.348C57.9197 354.549 56.3038 382.394 70.847 369.912C85.3902 357.43 84.8516 314.222 108.013 337.266C131.174 360.31 128.481 389.595 128.481 389.595L6.21062 388.635Z" fill="#004B7F"/>
<path d="M15.9816 347.506L44.971 388.875" stroke="#EEEADA" stroke-miterlimit="10"/>
<path d="M100.009 331.39L89.2521 389.835" stroke="#EEEADA" stroke-miterlimit="10"/>
<path d="M33.8695 373.032L44.5291 355.351" stroke="#EEEADA" stroke-miterlimit="10"/>
<path d="M4.82068 375.937L39.2019 380.637" stroke="#EEEADA" stroke-miterlimit="10"/>
<path d="M75.5332 364.194L91.9993 374.89" stroke="#EEEADA" stroke-miterlimit="10"/>
<path d="M121.479 352.149L94.6279 364.194" stroke="#EEEADA" stroke-miterlimit="10"/>
<path d="M274.538 329.551L282.143 366.546H143.563L150.264 167.93L240.404 163.599L286.875 228.901L333.346 294.202L274.538 329.551Z" fill="#006696"/>
<path d="M150.032 207.695H230.876" stroke="white" stroke-width="2" stroke-miterlimit="10"/>
<path d="M150.032 228.445H238.007" stroke="white" stroke-width="2" stroke-miterlimit="10"/>
<path d="M148.712 247.778H244.654" stroke="white" stroke-width="2" stroke-miterlimit="10"/>
<path d="M148.017 268.834L251.02 268.854" stroke="white" stroke-width="2" stroke-miterlimit="10"/>
<path d="M147.393 287.764L257.474 285.08" stroke="white" stroke-width="2" stroke-miterlimit="10"/>
<path d="M147.393 308.619L264.406 305.249" stroke="white" stroke-width="2" stroke-miterlimit="10"/>
<path d="M145.938 331.802L270.891 324.111" stroke="white" stroke-width="2" stroke-miterlimit="10"/>
<path d="M145.27 352.005L276.875 347.108" stroke="white" stroke-width="2" stroke-miterlimit="10"/>
<path d="M151.373 191.079L225.688 192.601" stroke="white" stroke-width="2" stroke-miterlimit="10"/>
<path d="M151.373 178.28H249.782" stroke="white" stroke-width="2" stroke-miterlimit="10"/>
<path d="M228.7 201.353L262.095 195.962" stroke="white" stroke-width="2" stroke-miterlimit="10"/>
<path d="M234.722 218.877L271.667 209.702" stroke="white" stroke-width="2" stroke-miterlimit="10"/>
<path d="M241.767 239.386L282.989 225.958" stroke="white" stroke-width="2" stroke-miterlimit="10"/>
<path d="M248.689 259.525L295.195 243.481" stroke="white" stroke-width="2" stroke-miterlimit="10"/>
<path d="M256.445 278.378L305.816 258.729" stroke="white" stroke-width="2" stroke-miterlimit="10"/>
<path d="M262.332 297.179L313.842 271.364" stroke="white" stroke-width="2" stroke-miterlimit="10"/>
<path d="M268.026 315.787L322.665 282.92" stroke="white" stroke-width="2" stroke-miterlimit="10"/>
<path d="M271.667 326.373L225.166 191.079" stroke="#1F1F31" stroke-miterlimit="10"/>
<path d="M238.093 108.505L217.728 70.7842L210.623 78.1343L224.277 108.505H238.093Z" fill="#00CEF1"/>
<path d="M231.689 108.985L214.13 68.0236L211.221 66.9674L227.644 108.985H231.689Z" fill="black"/>
<path d="M44.7231 36.0114C44.7231 36.0114 124.441 66.2568 79.7345 125.307C35.0276 184.358 4.86398 195.88 30.1799 242.929C55.4958 289.977 77.0413 346.627 46.8776 387.435" stroke="#1F1F31" stroke-miterlimit="10"/>
<path d="M123.477 106.176L124.554 105.269L162.394 73.9384C162.394 73.9384 169.148 64.3366 176.15 66.7371C183.153 69.1375 193.925 82.5799 192.309 87.8609C190.693 93.1418 155.192 113.334 155.192 113.334L117.978 142.111C117.978 142.111 130.264 122.235 118.462 110.329L123.477 106.176Z" fill="#00CEF1"/>
<path d="M117.978 110.425C117.681 110.022 126.994 103.267 126.994 103.267C126.994 103.267 136.921 119.067 132.569 130.829L117.978 142.111C117.978 142.111 126.057 121.467 117.978 110.425Z" fill="#EEEADA"/>
<path d="M123.364 112.345C123.959 112.345 124.441 111.915 124.441 111.385C124.441 110.855 123.959 110.425 123.364 110.425C122.769 110.425 122.286 110.855 122.286 111.385C122.286 111.915 122.769 112.345 123.364 112.345Z" fill="black"/>
<path d="M143.983 122.005L166.455 104.184" stroke="#1F1F31" stroke-miterlimit="10"/>
<path d="M154.066 130.588L155.434 112.888L162.146 107.544L154.066 130.588Z" fill="black"/>
<path d="M117.676 111.385C117.676 111.385 125.788 118.841 117.708 141.405C117.708 141.405 116.286 144.079 111.611 143.224C111.611 143.21 124.102 128.395 117.676 111.385Z" fill="black"/>
<path d="M92.3924 144.271C100.722 144.271 107.474 138.253 107.474 130.829C107.474 123.405 100.722 117.386 92.3924 117.386C84.0629 117.386 77.3105 123.405 77.3105 130.829C77.3105 138.253 84.0629 144.271 92.3924 144.271Z" fill="#004B7F"/>
<path d="M84.2213 119.546C84.2213 119.546 93.2004 96.5022 95.8936 105.144C98.5867 113.785 84.2213 119.546 84.2213 119.546Z" fill="#006696"/>
<path d="M97.2398 126.508C97.5373 126.508 97.7784 126.293 97.7784 126.028C97.7784 125.763 97.5373 125.548 97.2398 125.548C96.9423 125.548 96.7012 125.763 96.7012 126.028C96.7012 126.293 96.9423 126.508 97.2398 126.508Z" fill="black"/>
<path d="M98.5865 130.589C98.884 130.589 99.1251 130.374 99.1251 130.109C99.1251 129.843 98.884 129.628 98.5865 129.628C98.289 129.628 98.0479 129.843 98.0479 130.109C98.0479 130.374 98.289 130.589 98.5865 130.589Z" fill="black"/>
<path d="M100.741 127.228C101.039 127.228 101.28 127.013 101.28 126.748C101.28 126.483 101.039 126.268 100.741 126.268C100.444 126.268 100.202 126.483 100.202 126.748C100.202 127.013 100.444 127.228 100.741 127.228Z" fill="black"/>
<path d="M15.0818 200.686C23.4113 200.686 30.1637 194.668 30.1637 187.244C30.1637 179.82 23.4113 173.801 15.0818 173.801C6.75236 173.801 0 179.82 0 187.244C0 194.668 6.75236 200.686 15.0818 200.686Z" fill="#004B7F"/>
<path d="M29.5012 183.316C29.5012 183.316 39.3367 160.556 30.9986 165.635C22.6605 170.714 29.5012 183.316 29.5012 183.316Z" fill="#006696"/>
<path d="M14.8557 181.271C15.1531 181.271 15.3943 181.056 15.3943 180.791C15.3943 180.526 15.1531 180.311 14.8557 180.311C14.5582 180.311 14.317 180.526 14.317 180.791C14.317 181.056 14.5582 181.271 14.8557 181.271Z" fill="black"/>
<path d="M10.8696 183.614C11.167 183.614 11.4082 183.399 11.4082 183.134C11.4082 182.869 11.167 182.654 10.8696 182.654C10.5721 182.654 10.3309 182.869 10.3309 183.134C10.3309 183.399 10.5721 183.614 10.8696 183.614Z" fill="black"/>
<path d="M11.6561 179.807C11.9535 179.807 12.1947 179.592 12.1947 179.327C12.1947 179.062 11.9535 178.847 11.6561 178.847C11.3586 178.847 11.1174 179.062 11.1174 179.327C11.1174 179.592 11.3586 179.807 11.6561 179.807Z" fill="black"/>
<path d="M209.982 369.072C209.982 369.072 185.533 365.188 191.76 372.432C197.987 379.677 209.982 369.072 209.982 369.072Z" stroke="#EEEADA" stroke-miterlimit="10"/>
<path d="M211.404 366.955C211.404 366.955 194.066 353.411 206.853 355.557C219.64 357.703 211.404 366.955 211.404 366.955Z" stroke="#EEEADA" stroke-miterlimit="10"/>
<path d="M199.042 31.033C205.506 42.6367 199.005 56.732 199.005 56.732C186.745 52.2672 181.122 37.855 178.8 29.2422C177.61 36.4868 178.951 47.9368 194.69 57.2361C193.511 56.6216 171.777 45.0803 178.337 27.4419C178.057 26.2849 177.847 25.2863 177.696 24.499C177.801 24.3353 177.879 24.1591 177.928 23.9757L177.632 24.1437C177.632 24.2589 177.669 24.3742 177.696 24.499C177.325 25.0895 176.554 25.68 175.213 26.2369C175.213 26.2369 167.941 35.3586 151.949 33.9663C151.949 33.9663 161.618 21.6281 173.231 20.0102C171.566 18.9441 170.223 17.5263 169.324 15.884C168.425 14.2416 167.998 12.4261 168.08 10.6002C168.162 8.77423 168.751 6.99499 169.794 5.42199C170.838 3.84899 172.303 2.53142 174.059 1.58742C175.814 0.64342 177.805 0.102511 179.853 0.0131975C181.901 -0.0761155 183.941 0.288961 185.792 1.07569C187.642 1.86241 189.245 3.04619 190.456 4.52087C191.667 5.99555 192.448 7.71502 192.73 9.52509C192.73 9.61151 192.756 9.70272 192.767 9.78914C193.615 9.50325 194.497 9.30355 195.396 9.19383C198.612 8.82492 201.863 9.59504 204.45 11.3388C207.037 13.0826 208.753 15.6609 209.23 18.5201C209.708 21.3793 208.908 24.2914 207.003 26.631C205.098 28.9705 202.24 30.551 199.042 31.033V31.033Z" fill="#006696"/>
<path d="M186.89 44.9842C190.645 44.9842 193.688 42.2716 193.688 38.9255C193.688 35.5794 190.645 32.8668 186.89 32.8668C183.136 32.8668 180.093 35.5794 180.093 38.9255C180.093 42.2716 183.136 44.9842 186.89 44.9842Z" fill="#FFCCC3"/>
<path d="M299.417 353.085L311.046 383.028L323.774 379.101L326.101 374.828L332.209 372.941L335.98 374.574L392.224 357.218L388.438 347.468L336.578 341.62L299.417 353.085Z" fill="black"/>
<path d="M344.022 342.46L338.065 351.323" stroke="#EEEADA" stroke-miterlimit="10"/>
<path d="M351.697 343.142L345.74 352.005" stroke="#EEEADA" stroke-miterlimit="10"/>
<path d="M341.948 345.547C341.948 345.547 317.499 341.664 323.726 348.908C329.952 356.153 341.948 345.547 341.948 345.547Z" stroke="#EEEADA" stroke-miterlimit="10"/>
<path d="M343.37 343.43C343.37 343.43 326.031 329.887 338.819 332.033C351.606 334.179 343.37 343.43 343.37 343.43Z" stroke="#EEEADA" stroke-miterlimit="10"/>
</svg>
